<?xml version='1.0' encoding='utf-8'?>
<!DOCTYPE svg PUBLIC '-//W3C//DTD SVG 1.1//EN' 'http://www.w3.org/Graphics/SVG/1.1/DTD/svg11.dtd'>
<svg version="1.1" xmlns="http://www.w3.org/2000/svg" viewBox="0 0 512 512" xmlns:xlink="http://www.w3.org/1999/xlink" enable-background="new 0 0 512 512">
  <g>
    <g>
      <path d="M290.3,256c51.3-33.5,164.8-119.4,164.8-224.6c0-11.3-9.1-20.4-20.4-20.4c-11.3,0-20.4,9.1-20.4,20.4    c0,93.3-122.2,175.6-158.2,197.9C219.9,207.1,97.8,124.9,97.8,31.4c0-11.3-9.1-20.4-20.4-20.4c-11.3,0-20.4,9.1-20.4,20.4    c0,105.1,113.5,191.1,164.8,224.6C170.5,289.5,56.9,375.4,56.9,480.6c0,11.3,9.1,20.4,20.4,20.4c11.3,0,20.4-9.1,20.4-20.4    c0-93.3,122.2-175.6,158.2-197.9c36.1,22.2,158.2,104.4,158.2,197.9c0,11.3,9.1,20.4,20.4,20.4c11.3,0,20.4-9.1,20.4-20.4    C455.1,375.4,341.5,289.5,290.3,256z"/>
      <path d="m177,51.8h158c11.3,0 20.4-9.1 20.4-20.4 0-11.3-9.1-20.4-20.4-20.4h-158c-11.3,0-20.4,9.1-20.4,20.4 0,11.3 9.1,20.4 20.4,20.4z"/>
      <path d="m211.7,113.3c-11.3,0-20.4,9.1-20.4,20.4s9.1,20.4 20.4,20.4h88.6c11.3,0 20.4-9.1 20.4-20.4s-9.1-20.4-20.4-20.4h-88.6z"/>
      <path d="m335,460.2h-158c-11.3,0-20.4,9.1-20.4,20.4s9.1,20.4 20.4,20.4h158c11.3,0 20.4-9.1 20.4-20.4s-9.1-20.4-20.4-20.4z"/>
      <path d="m300.3,398.7c11.3,0 20.4-9.1 20.4-20.4s-9.1-20.4-20.4-20.4h-88.6c-11.3,0-20.4,9.1-20.4,20.4s9.1,20.4 20.4,20.4h88.6z"/>
    </g>
  </g>
</svg>
